<svg width="16" height="16" viewBox="0 0 16 16" fill="none" xmlns="http://www.w3.org/2000/svg">
<path d="M11.0927 0.672269C11.0927 0.493972 11.0206 0.322978 10.8922 0.196903C10.7638 0.0708281 10.5896 0 10.408 0H5.61484C5.43323 0 5.25907 0.0708281 5.13065 0.196903C5.00224 0.322978 4.9301 0.493972 4.9301 0.672269V2.39776H0V3.76471H2.21398V15.3277C2.21398 15.506 2.28612 15.677 2.41453 15.8031C2.54295 15.9292 2.71711 16 2.89872 16H13.1013C13.2829 16 13.4571 15.9292 13.5855 15.8031C13.7139 15.677 13.786 15.506 13.786 15.3277V3.76471H16V2.39776H11.0927V0.672269ZM9.70043 2.39776H6.3224V1.34454H9.70043V2.39776Z" fill="#CD0101"/>
</svg>
